<?xml version="1.0"?><svg width="793.7007874015749" height="1122.5196850393702" xmlns="http://www.w3.org/2000/svg">

 <g>
  <title>Layer 1</title>
  <g externalResourcesRequired="false" id="layer1">
   <g externalResourcesRequired="false" transform="matrix(1.07785 0 0 1.20085 -38.708 -137.962)" id="g6400">
    <path fill="#ffffff" fill-rule="nonzero" stroke-width="20" stroke-linecap="round" stroke-linejoin="round" marker-start="none" marker-mid="none" marker-end="none" stroke-miterlimit="4" stroke-dashoffset="62.5" id="path6402" d="m567.431335,481.704712a219.925217,201.225296 0 1 1 0.000916,-0.077606"/>
    <path fill="none" fill-opacity="0.75" fill-rule="evenodd" stroke="black" stroke-width="38.849224" stroke-linecap="round" stroke-linejoin="round" stroke-miterlimit="4" id="path6404" d="m420.892883,669.44574c42.41687,-17.556885 135.946411,-74.046143 136.404785,-189.545502c0.458435,-116.160461 -104.047424,-203.529877 -210.658325,-200.810425c-104.973419,2.719452 -217.687378,66.192535 -218.479492,200.371674c-0.792114,133.518005 121.299286,198.685913 312.464905,244.174805c114.326172,27.80365 -276.095154,24.685852 -230.00325,37.903564c56.843307,16.300903 319.523087,31.547058 240.397171,49.996643c-76.091278,17.742004 -198.007782,8.901428 -241.696762,30.538391c-39.181839,19.404724 426.59343,17.439636 189.693192,60.570923"/>
    <path fill="none" fill-opacity="0.75" fill-rule="evenodd" stroke="black" stroke-width="38.301479" stroke-linecap="round" stroke-miterlimit="4" id="path6406" d="m277.591217,441.993317c49.677887,21.427765 89.402435,54.290741 166.501282,-6.795959"/>
    <path fill="none" fill-opacity="0.75" fill-rule="evenodd" stroke="black" stroke-width="38.242355" stroke-linecap="round" stroke-miterlimit="4" id="path6408" d="m81.612495,278.039246l47.641945,52.503357"/>
    <path fill="none" fill-opacity="0.75" fill-rule="evenodd" stroke="black" stroke-width="0.73543px" id="path6410" d="m236.205765,168.171021c-0.324097,0 -0.648193,0 0,0z"/>
    <path fill="none" fill-opacity="0.75" fill-rule="evenodd" stroke="black" stroke-width="38.242355" stroke-linecap="round" stroke-miterlimit="4" id="path6412" d="m218.704651,169.143311l23.334824,57.364807"/>
    <path fill="none" fill-opacity="0.75" fill-rule="evenodd" stroke="black" stroke-width="38.242355" stroke-linecap="round" stroke-miterlimit="4" id="path6414" d="m448.163879,150.669907l-13.612,61.253937"/>
    <path fill="none" fill-opacity="0.75" fill-rule="evenodd" stroke="black" stroke-width="38.242355" stroke-linecap="round" stroke-miterlimit="4" id="path6416" d="m664.011047,245.953796l-55.420227,43.752869"/>
   </g>
   <path fill="white" fill-rule="nonzero" stroke-width="52" stroke-linecap="round" stroke-linejoin="round" marker-start="none" marker-mid="none" marker-end="none" stroke-miterlimit="4" stroke-dashoffset="62.5" id="path6418" d="m334.38913,302.541107a55.900757,61.602551 0 1 1 0.000275,-0.023773"/>
  </g>
 </g>
</svg>